M48
;DRILL file {KiCad 4.0.2+e4-6225~38~ubuntu14.04.1-stable} date vie 25 nov 2016 20:15:36 ART
;FORMAT={-:-/ absolute / inch / decimal}
FMAT,2
INCH,TZ
T1C0.016
T2C0.020
T3C0.022
T4C0.030
T5C0.031
T6C0.032
T7C0.039
T8C0.040
T9C0.047
T10C0.052
T11C0.055
%
G90
G05
M72
T1
X4.8355Y-4.699
X5.08Y-3.6863
X5.103Y-2.6445
X5.104Y-2.475
X5.3575Y-2.863
X5.367Y-2.563
X5.4135Y-3.606
X5.459Y-2.625
X5.46Y-2.4715
X5.496Y-3.1695
X5.4985Y-4.662
X5.531Y-4.321
X5.535Y-3.72
X5.588Y-2.4385
X5.6329Y-3.945
X5.7135Y-2.464
X5.7135Y-2.651
X5.8455Y-2.4475
X5.9895Y-2.48
X5.9905Y-2.6455
X6.015Y-3.04
X6.048Y-3.5355
X6.055Y-4.5885
X6.059Y-3.654
X6.086Y-3.0895
X6.123Y-2.493
X6.141Y-3.288
X6.479Y-3.368
X6.5855Y-4.676
X6.6265Y-3.269
X7.1055Y-2.637
X7.8165Y-3.1965
X7.821Y-2.616
T4
X6.33Y-3.73
X6.33Y-3.83
X6.33Y-3.93
X6.33Y-4.03
X6.33Y-4.13
X6.33Y-4.23
X7.13Y-3.83
X7.13Y-3.93
X7.13Y-4.03
X7.13Y-4.13
X7.13Y-4.23
X7.13Y-4.33
T5
X5.07Y-3.04
X5.07Y-3.2369
X5.436Y-3.945
X5.6329Y-3.945
X6.008Y-3.5795
X6.1064Y-3.5795
X7.482Y-4.11
X7.482Y-4.21
X7.482Y-4.31
T6
X5.486Y-3.4255
X5.686Y-3.4255
X6.25Y-2.69
X6.35Y-2.69
X6.45Y-2.69
X7.59Y-3.636
X7.59Y-3.736
X7.59Y-3.836
T7
X5.941Y-3.288
X6.041Y-3.288
X6.141Y-3.288
X7.013Y-3.309
X7.113Y-3.309
X7.213Y-3.309
T8
X5.5Y-4.56
X5.6Y-4.56
X5.7Y-4.56
X5.86Y-4.104
X5.86Y-4.204
X5.96Y-4.104
X5.96Y-4.204
X6.2755Y-4.545
X6.28Y-2.47
X6.3755Y-4.545
X6.38Y-2.47
X6.4755Y-4.545
X6.48Y-2.47
X6.58Y-2.47
X6.6265Y-3.269
X6.6265Y-3.369
X6.68Y-2.47
X6.7265Y-3.269
X6.7265Y-3.369
X6.78Y-2.47
X6.93Y-2.47
X7.03Y-2.47
X7.13Y-2.47
X7.23Y-2.47
X7.33Y-2.47
X7.364Y-3.805
X7.364Y-3.905
X7.38Y-4.55
X7.43Y-2.47
X7.48Y-4.55
X7.5345Y-3.2625
X7.5375Y-3.4065
X7.58Y-4.55
X7.6345Y-3.2625
X7.6375Y-3.4065
T9
X7.98Y-4.59
X7.98Y-4.7869
X7.98Y-4.9838
T10
X4.28Y-3.9331
X4.28Y-4.13
X4.28Y-4.4031
X4.28Y-4.6
X4.354Y-2.9621
X4.354Y-3.159
X4.3931Y-4.98
X4.59Y-4.98
X4.9031Y-4.99
X5.1Y-4.99
X6.2221Y-4.96
X6.419Y-4.96
X6.6701Y-4.96
X6.867Y-4.96
X7.98Y-3.63
X7.98Y-3.8269
X7.98Y-4.08
X7.98Y-4.2769
X7.995Y-2.5
X7.995Y-2.6969
X7.995Y-2.957
X7.995Y-3.1539
X7.995Y-3.3507
T11
X5.4652Y-4.9105
X5.6621Y-4.9105
X5.859Y-4.9105
X7.1627Y-4.914
X7.3596Y-4.914
X7.5565Y-4.914
T2
X4.3322Y-2.4524G85X4.3322Y-2.478
G05
X4.6078Y-2.4524G85X4.6078Y-2.478
G05
T3
X4.3775Y-2.5715G85X4.3657Y-2.5715
G05
X4.5744Y-2.5715G85X4.5626Y-2.5715
G05
T0
M30
